%TF.GenerationSoftware,KiCad,Pcbnew,(5.1.6)-1*%
%TF.CreationDate,2021-08-23T07:44:09-04:00*%
%TF.ProjectId,full-can-to-smd,66756c6c-2d63-4616-9e2d-746f2d736d64,rev?*%
%TF.SameCoordinates,Original*%
%TF.FileFunction,Soldermask,Bot*%
%TF.FilePolarity,Negative*%
%FSLAX46Y46*%
G04 Gerber Fmt 4.6, Leading zero omitted, Abs format (unit mm)*
G04 Created by KiCad (PCBNEW (5.1.6)-1) date 2021-08-23 07:44:09*
%MOMM*%
%LPD*%
G01*
G04 APERTURE LIST*
%ADD10R,1.700000X1.700000*%
%ADD11C,1.700000*%
%ADD12R,1.250000X0.700000*%
%ADD13R,1.300000X0.700000*%
%ADD14R,1.450000X1.450000*%
%ADD15O,1.450000X1.450000*%
G04 APERTURE END LIST*
D10*
%TO.C,X0*%
X142197001Y-81936001D03*
D11*
X142197001Y-74316001D03*
X157437001Y-74316001D03*
X157437001Y-81936001D03*
%TD*%
%TO.C,C1*%
G36*
G01*
X145698738Y-76700000D02*
X146655262Y-76700000D01*
G75*
G02*
X146927000Y-76971738I0J-271738D01*
G01*
X146927000Y-77678262D01*
G75*
G02*
X146655262Y-77950000I-271738J0D01*
G01*
X145698738Y-77950000D01*
G75*
G02*
X145427000Y-77678262I0J271738D01*
G01*
X145427000Y-76971738D01*
G75*
G02*
X145698738Y-76700000I271738J0D01*
G01*
G37*
G36*
G01*
X145698738Y-78750000D02*
X146655262Y-78750000D01*
G75*
G02*
X146927000Y-79021738I0J-271738D01*
G01*
X146927000Y-79728262D01*
G75*
G02*
X146655262Y-80000000I-271738J0D01*
G01*
X145698738Y-80000000D01*
G75*
G02*
X145427000Y-79728262I0J271738D01*
G01*
X145427000Y-79021738D01*
G75*
G02*
X145698738Y-78750000I271738J0D01*
G01*
G37*
%TD*%
%TO.C,C2*%
G36*
G01*
X153318738Y-78641000D02*
X154275262Y-78641000D01*
G75*
G02*
X154547000Y-78912738I0J-271738D01*
G01*
X154547000Y-79619262D01*
G75*
G02*
X154275262Y-79891000I-271738J0D01*
G01*
X153318738Y-79891000D01*
G75*
G02*
X153047000Y-79619262I0J271738D01*
G01*
X153047000Y-78912738D01*
G75*
G02*
X153318738Y-78641000I271738J0D01*
G01*
G37*
G36*
G01*
X153318738Y-76591000D02*
X154275262Y-76591000D01*
G75*
G02*
X154547000Y-76862738I0J-271738D01*
G01*
X154547000Y-77569262D01*
G75*
G02*
X154275262Y-77841000I-271738J0D01*
G01*
X153318738Y-77841000D01*
G75*
G02*
X153047000Y-77569262I0J271738D01*
G01*
X153047000Y-76862738D01*
G75*
G02*
X153318738Y-76591000I271738J0D01*
G01*
G37*
%TD*%
D12*
%TO.C,IC1*%
X148483000Y-77023000D03*
X148483000Y-76073000D03*
X148483000Y-75123000D03*
X150983000Y-75123000D03*
X150983000Y-77023000D03*
%TD*%
D13*
%TO.C,IC2*%
X148503000Y-81153000D03*
X148503000Y-80203000D03*
X148503000Y-79253000D03*
X151003000Y-79253000D03*
X151003000Y-81153000D03*
%TD*%
D14*
%TO.C,J1*%
X144145000Y-80137000D03*
D15*
X144145000Y-78137000D03*
X144145000Y-76137000D03*
%TD*%
M02*
