%TF.GenerationSoftware,KiCad,Pcbnew,(5.1.6)-1*%
%TF.CreationDate,2021-08-23T07:44:09-04:00*%
%TF.ProjectId,full-can-to-smd,66756c6c-2d63-4616-9e2d-746f2d736d64,rev?*%
%TF.SameCoordinates,Original*%
%TF.FileFunction,Copper,L2,Bot*%
%TF.FilePolarity,Positive*%
%FSLAX46Y46*%
G04 Gerber Fmt 4.6, Leading zero omitted, Abs format (unit mm)*
G04 Created by KiCad (PCBNEW (5.1.6)-1) date 2021-08-23 07:44:09*
%MOMM*%
%LPD*%
G01*
G04 APERTURE LIST*
%TA.AperFunction,ComponentPad*%
%ADD10R,1.600000X1.600000*%
%TD*%
%TA.AperFunction,ComponentPad*%
%ADD11C,1.600000*%
%TD*%
%TA.AperFunction,SMDPad,CuDef*%
%ADD12R,1.150000X0.600000*%
%TD*%
%TA.AperFunction,SMDPad,CuDef*%
%ADD13R,1.200000X0.600000*%
%TD*%
%TA.AperFunction,ComponentPad*%
%ADD14R,1.350000X1.350000*%
%TD*%
%TA.AperFunction,ComponentPad*%
%ADD15O,1.350000X1.350000*%
%TD*%
%TA.AperFunction,ViaPad*%
%ADD16C,0.800000*%
%TD*%
%TA.AperFunction,Conductor*%
%ADD17C,0.400000*%
%TD*%
%TA.AperFunction,Conductor*%
%ADD18C,0.250000*%
%TD*%
%TA.AperFunction,Conductor*%
%ADD19C,0.254000*%
%TD*%
G04 APERTURE END LIST*
D10*
%TO.P,X0,1*%
%TO.N,/EN*%
X142197001Y-81936001D03*
D11*
%TO.P,X0,14*%
%TO.N,/5VDC*%
X142197001Y-74316001D03*
%TO.P,X0,8*%
%TO.N,/5VCLK*%
X157437001Y-74316001D03*
%TO.P,X0,7*%
%TO.N,GND*%
X157437001Y-81936001D03*
%TD*%
%TO.P,C1,1*%
%TO.N,/5VDC*%
%TA.AperFunction,SMDPad,CuDef*%
G36*
G01*
X145726999Y-76750000D02*
X146627001Y-76750000D01*
G75*
G02*
X146877000Y-76999999I0J-249999D01*
G01*
X146877000Y-77650001D01*
G75*
G02*
X146627001Y-77900000I-249999J0D01*
G01*
X145726999Y-77900000D01*
G75*
G02*
X145477000Y-77650001I0J249999D01*
G01*
X145477000Y-76999999D01*
G75*
G02*
X145726999Y-76750000I249999J0D01*
G01*
G37*
%TD.AperFunction*%
%TO.P,C1,2*%
%TO.N,GND*%
%TA.AperFunction,SMDPad,CuDef*%
G36*
G01*
X145726999Y-78800000D02*
X146627001Y-78800000D01*
G75*
G02*
X146877000Y-79049999I0J-249999D01*
G01*
X146877000Y-79700001D01*
G75*
G02*
X146627001Y-79950000I-249999J0D01*
G01*
X145726999Y-79950000D01*
G75*
G02*
X145477000Y-79700001I0J249999D01*
G01*
X145477000Y-79049999D01*
G75*
G02*
X145726999Y-78800000I249999J0D01*
G01*
G37*
%TD.AperFunction*%
%TD*%
%TO.P,C2,2*%
%TO.N,GND*%
%TA.AperFunction,SMDPad,CuDef*%
G36*
G01*
X153346999Y-78691000D02*
X154247001Y-78691000D01*
G75*
G02*
X154497000Y-78940999I0J-249999D01*
G01*
X154497000Y-79591001D01*
G75*
G02*
X154247001Y-79841000I-249999J0D01*
G01*
X153346999Y-79841000D01*
G75*
G02*
X153097000Y-79591001I0J249999D01*
G01*
X153097000Y-78940999D01*
G75*
G02*
X153346999Y-78691000I249999J0D01*
G01*
G37*
%TD.AperFunction*%
%TO.P,C2,1*%
%TO.N,/3.3VDC*%
%TA.AperFunction,SMDPad,CuDef*%
G36*
G01*
X153346999Y-76641000D02*
X154247001Y-76641000D01*
G75*
G02*
X154497000Y-76890999I0J-249999D01*
G01*
X154497000Y-77541001D01*
G75*
G02*
X154247001Y-77791000I-249999J0D01*
G01*
X153346999Y-77791000D01*
G75*
G02*
X153097000Y-77541001I0J249999D01*
G01*
X153097000Y-76890999D01*
G75*
G02*
X153346999Y-76641000I249999J0D01*
G01*
G37*
%TD.AperFunction*%
%TD*%
D12*
%TO.P,IC1,1*%
%TO.N,/5VDC*%
X148483000Y-77023000D03*
%TO.P,IC1,2*%
%TO.N,GND*%
X148483000Y-76073000D03*
%TO.P,IC1,3*%
%TO.N,/5VDC*%
X148483000Y-75123000D03*
%TO.P,IC1,4*%
%TO.N,Net-(IC1-Pad4)*%
X150983000Y-75123000D03*
%TO.P,IC1,5*%
%TO.N,/3.3VDC*%
X150983000Y-77023000D03*
%TD*%
D13*
%TO.P,IC2,1*%
%TO.N,Net-(IC2-Pad1)*%
X148503000Y-81153000D03*
%TO.P,IC2,2*%
%TO.N,/3VCLK*%
X148503000Y-80203000D03*
%TO.P,IC2,3*%
%TO.N,GND*%
X148503000Y-79253000D03*
%TO.P,IC2,4*%
%TO.N,/5VCLK*%
X151003000Y-79253000D03*
%TO.P,IC2,5*%
%TO.N,/5VDC*%
X151003000Y-81153000D03*
%TD*%
D14*
%TO.P,J1,1*%
%TO.N,GND*%
X144145000Y-80137000D03*
D15*
%TO.P,J1,2*%
%TO.N,Net-(J1-Pad2)*%
X144145000Y-78137000D03*
%TO.P,J1,3*%
%TO.N,/3.3VDC*%
X144145000Y-76137000D03*
%TD*%
D16*
%TO.N,GND*%
X148971000Y-76073000D03*
X148590000Y-78232000D03*
X145669000Y-81280000D03*
X154813000Y-74549000D03*
%TO.N,/3.3VDC*%
X147447000Y-73787000D03*
%TO.N,/3VCLK*%
X146939000Y-81788000D03*
%TD*%
D17*
%TO.N,/5VDC*%
X148483000Y-77023000D02*
X148778000Y-77023000D01*
X148778000Y-77023000D02*
X149733000Y-77978000D01*
X149733000Y-77978000D02*
X149733000Y-80645000D01*
X150241000Y-81153000D02*
X151003000Y-81153000D01*
X149733000Y-80645000D02*
X150241000Y-81153000D01*
X147804000Y-75123000D02*
X148483000Y-75123000D01*
X146177000Y-76750000D02*
X147804000Y-75123000D01*
X146177000Y-77325000D02*
X146177000Y-76750000D01*
X146177000Y-77325000D02*
X147084000Y-77325000D01*
X147386000Y-77023000D02*
X148483000Y-77023000D01*
X147084000Y-77325000D02*
X147386000Y-77023000D01*
X142197001Y-74316001D02*
X144801001Y-74316001D01*
X146177000Y-75692000D02*
X146177000Y-77325000D01*
X144801001Y-74316001D02*
X146177000Y-75692000D01*
%TO.N,/3.3VDC*%
X153604000Y-77023000D02*
X153797000Y-77216000D01*
X150983000Y-77023000D02*
X153604000Y-77023000D01*
X150983000Y-77023000D02*
X149733000Y-75773000D01*
X149733000Y-75773000D02*
X149733000Y-74422000D01*
X149733000Y-74422000D02*
X149098000Y-73787000D01*
X149098000Y-73787000D02*
X147447000Y-73787000D01*
D18*
X147447000Y-73787000D02*
X147447000Y-73787000D01*
%TO.N,/3VCLK*%
X147653000Y-80203000D02*
X146939000Y-80917000D01*
X148503000Y-80203000D02*
X147653000Y-80203000D01*
X146939000Y-80917000D02*
X146939000Y-81788000D01*
X146939000Y-81788000D02*
X146939000Y-81788000D01*
%TO.N,/5VCLK*%
X157437001Y-76115999D02*
X157437001Y-74316001D01*
X155321000Y-78232000D02*
X157437001Y-76115999D01*
X151003000Y-79253000D02*
X152024000Y-78232000D01*
X152024000Y-78232000D02*
X155321000Y-78232000D01*
%TD*%
D19*
%TO.N,GND*%
G36*
X141615799Y-73228648D02*
G01*
X141414834Y-73362928D01*
X141243928Y-73533834D01*
X141109648Y-73734799D01*
X141017154Y-73958098D01*
X140970001Y-74195152D01*
X140970001Y-74436850D01*
X141017154Y-74673904D01*
X141109648Y-74897203D01*
X141243928Y-75098168D01*
X141414834Y-75269074D01*
X141615799Y-75403354D01*
X141839098Y-75495848D01*
X142076152Y-75543001D01*
X142317850Y-75543001D01*
X142554904Y-75495848D01*
X142778203Y-75403354D01*
X142979168Y-75269074D01*
X143150074Y-75098168D01*
X143253753Y-74943001D01*
X144541290Y-74943001D01*
X145550000Y-75951712D01*
X145550000Y-76347487D01*
X145467132Y-76372625D01*
X145349731Y-76435377D01*
X145246828Y-76519828D01*
X145162377Y-76622731D01*
X145099625Y-76740132D01*
X145060982Y-76867520D01*
X145047934Y-76999999D01*
X145047934Y-77504789D01*
X145000979Y-77434516D01*
X144847484Y-77281021D01*
X144666993Y-77160420D01*
X144610452Y-77137000D01*
X144666993Y-77113580D01*
X144847484Y-76992979D01*
X145000979Y-76839484D01*
X145121580Y-76658993D01*
X145204651Y-76458442D01*
X145247000Y-76245538D01*
X145247000Y-76028462D01*
X145204651Y-75815558D01*
X145121580Y-75615007D01*
X145000979Y-75434516D01*
X144847484Y-75281021D01*
X144666993Y-75160420D01*
X144466442Y-75077349D01*
X144253538Y-75035000D01*
X144036462Y-75035000D01*
X143823558Y-75077349D01*
X143623007Y-75160420D01*
X143442516Y-75281021D01*
X143289021Y-75434516D01*
X143168420Y-75615007D01*
X143085349Y-75815558D01*
X143043000Y-76028462D01*
X143043000Y-76245538D01*
X143085349Y-76458442D01*
X143168420Y-76658993D01*
X143289021Y-76839484D01*
X143442516Y-76992979D01*
X143623007Y-77113580D01*
X143679548Y-77137000D01*
X143623007Y-77160420D01*
X143442516Y-77281021D01*
X143289021Y-77434516D01*
X143168420Y-77615007D01*
X143085349Y-77815558D01*
X143043000Y-78028462D01*
X143043000Y-78245538D01*
X143085349Y-78458442D01*
X143168420Y-78658993D01*
X143289021Y-78839484D01*
X143442516Y-78992979D01*
X143502541Y-79033086D01*
X143470000Y-79032934D01*
X143386293Y-79041178D01*
X143305804Y-79065595D01*
X143231624Y-79105245D01*
X143166605Y-79158605D01*
X143113245Y-79223624D01*
X143073595Y-79297804D01*
X143049178Y-79378293D01*
X143040934Y-79462000D01*
X143043000Y-79903250D01*
X143149750Y-80010000D01*
X144018000Y-80010000D01*
X144018000Y-79990000D01*
X144272000Y-79990000D01*
X144272000Y-80010000D01*
X144292000Y-80010000D01*
X144292000Y-80264000D01*
X144272000Y-80264000D01*
X144272000Y-81132250D01*
X144378750Y-81239000D01*
X144820000Y-81241066D01*
X144903707Y-81232822D01*
X144984196Y-81208405D01*
X145058376Y-81168755D01*
X145123395Y-81115395D01*
X145176755Y-81050376D01*
X145216405Y-80976196D01*
X145240822Y-80895707D01*
X145249066Y-80812000D01*
X145247000Y-80370750D01*
X145140252Y-80264002D01*
X145186530Y-80264002D01*
X145238624Y-80306755D01*
X145312804Y-80346405D01*
X145393293Y-80370822D01*
X145477000Y-80379066D01*
X145943250Y-80377000D01*
X146050000Y-80270250D01*
X146050000Y-79502000D01*
X146030000Y-79502000D01*
X146030000Y-79248000D01*
X146050000Y-79248000D01*
X146050000Y-78479750D01*
X146304000Y-78479750D01*
X146304000Y-79248000D01*
X147197250Y-79248000D01*
X147304000Y-79141250D01*
X147305139Y-78953000D01*
X147473934Y-78953000D01*
X147476000Y-79019250D01*
X147582750Y-79126000D01*
X148376000Y-79126000D01*
X148376000Y-78632750D01*
X148269250Y-78526000D01*
X147903000Y-78523934D01*
X147819293Y-78532178D01*
X147738804Y-78556595D01*
X147664624Y-78596245D01*
X147599605Y-78649605D01*
X147546245Y-78714624D01*
X147506595Y-78788804D01*
X147482178Y-78869293D01*
X147473934Y-78953000D01*
X147305139Y-78953000D01*
X147306066Y-78800000D01*
X147297822Y-78716293D01*
X147273405Y-78635804D01*
X147233755Y-78561624D01*
X147180395Y-78496605D01*
X147115376Y-78443245D01*
X147041196Y-78403595D01*
X146960707Y-78379178D01*
X146877000Y-78370934D01*
X146410750Y-78373000D01*
X146304000Y-78479750D01*
X146050000Y-78479750D01*
X145943250Y-78373000D01*
X145477000Y-78370934D01*
X145393293Y-78379178D01*
X145312804Y-78403595D01*
X145238624Y-78443245D01*
X145196691Y-78477658D01*
X145204651Y-78458442D01*
X145247000Y-78245538D01*
X145247000Y-78130313D01*
X145349731Y-78214623D01*
X145467132Y-78277375D01*
X145594520Y-78316018D01*
X145726999Y-78329066D01*
X146627001Y-78329066D01*
X146759480Y-78316018D01*
X146886868Y-78277375D01*
X147004269Y-78214623D01*
X147107172Y-78130172D01*
X147191623Y-78027269D01*
X147242470Y-77932141D01*
X147325103Y-77907075D01*
X147434028Y-77848853D01*
X147529501Y-77770501D01*
X147549138Y-77746573D01*
X147640147Y-77655564D01*
X147669624Y-77679755D01*
X147743804Y-77719405D01*
X147824293Y-77743822D01*
X147908000Y-77752066D01*
X148620355Y-77752066D01*
X149106000Y-78237712D01*
X149106000Y-78524229D01*
X149103000Y-78523934D01*
X148736750Y-78526000D01*
X148630000Y-78632750D01*
X148630000Y-79126000D01*
X148650000Y-79126000D01*
X148650000Y-79380000D01*
X148630000Y-79380000D01*
X148630000Y-79400000D01*
X148376000Y-79400000D01*
X148376000Y-79380000D01*
X147582750Y-79380000D01*
X147476000Y-79486750D01*
X147473934Y-79553000D01*
X147482178Y-79636707D01*
X147493644Y-79674503D01*
X147440737Y-79690552D01*
X147344842Y-79741809D01*
X147305004Y-79774503D01*
X147304000Y-79608750D01*
X147197250Y-79502000D01*
X146304000Y-79502000D01*
X146304000Y-80270250D01*
X146410750Y-80377000D01*
X146697087Y-80378269D01*
X146567856Y-80507500D01*
X146546789Y-80524789D01*
X146477809Y-80608842D01*
X146426552Y-80704738D01*
X146394988Y-80808790D01*
X146389039Y-80869191D01*
X146384330Y-80917000D01*
X146387000Y-80944106D01*
X146387000Y-81170447D01*
X146296628Y-81260819D01*
X146206123Y-81396269D01*
X146143782Y-81546773D01*
X146112000Y-81706548D01*
X146112000Y-81869452D01*
X146143782Y-82029227D01*
X146206123Y-82179731D01*
X146296628Y-82315181D01*
X146411819Y-82430372D01*
X146547269Y-82520877D01*
X146697773Y-82583218D01*
X146857548Y-82615000D01*
X147020452Y-82615000D01*
X147180227Y-82583218D01*
X147330731Y-82520877D01*
X147466181Y-82430372D01*
X147581372Y-82315181D01*
X147671877Y-82179731D01*
X147734218Y-82029227D01*
X147737096Y-82014756D01*
X156206582Y-82014756D01*
X156245589Y-82253286D01*
X156330381Y-82479623D01*
X156370191Y-82554104D01*
X156555944Y-82637453D01*
X157257396Y-81936001D01*
X157616606Y-81936001D01*
X158318058Y-82637453D01*
X158503811Y-82554104D01*
X158603898Y-82334102D01*
X158659142Y-82098802D01*
X158667420Y-81857246D01*
X158628413Y-81618716D01*
X158543621Y-81392379D01*
X158503811Y-81317898D01*
X158318058Y-81234549D01*
X157616606Y-81936001D01*
X157257396Y-81936001D01*
X156555944Y-81234549D01*
X156370191Y-81317898D01*
X156270104Y-81537900D01*
X156214860Y-81773200D01*
X156206582Y-82014756D01*
X147737096Y-82014756D01*
X147766000Y-81869452D01*
X147766000Y-81857655D01*
X147819293Y-81873822D01*
X147903000Y-81882066D01*
X149103000Y-81882066D01*
X149186707Y-81873822D01*
X149267196Y-81849405D01*
X149341376Y-81809755D01*
X149406395Y-81756395D01*
X149459755Y-81691376D01*
X149499405Y-81617196D01*
X149523822Y-81536707D01*
X149532066Y-81453000D01*
X149532066Y-81330777D01*
X149775866Y-81574578D01*
X149795499Y-81598501D01*
X149890972Y-81676853D01*
X149999897Y-81735075D01*
X150116858Y-81770554D01*
X150164624Y-81809755D01*
X150238804Y-81849405D01*
X150319293Y-81873822D01*
X150403000Y-81882066D01*
X151603000Y-81882066D01*
X151686707Y-81873822D01*
X151767196Y-81849405D01*
X151841376Y-81809755D01*
X151906395Y-81756395D01*
X151959755Y-81691376D01*
X151999405Y-81617196D01*
X152023822Y-81536707D01*
X152032066Y-81453000D01*
X152032066Y-81054944D01*
X156735549Y-81054944D01*
X157437001Y-81756396D01*
X158138453Y-81054944D01*
X158055104Y-80869191D01*
X157835102Y-80769104D01*
X157599802Y-80713860D01*
X157358246Y-80705582D01*
X157119716Y-80744589D01*
X156893379Y-80829381D01*
X156818898Y-80869191D01*
X156735549Y-81054944D01*
X152032066Y-81054944D01*
X152032066Y-80853000D01*
X152023822Y-80769293D01*
X151999405Y-80688804D01*
X151959755Y-80614624D01*
X151906395Y-80549605D01*
X151841376Y-80496245D01*
X151767196Y-80456595D01*
X151686707Y-80432178D01*
X151603000Y-80423934D01*
X150403000Y-80423934D01*
X150399036Y-80424324D01*
X150360000Y-80385289D01*
X150360000Y-79977831D01*
X150403000Y-79982066D01*
X151603000Y-79982066D01*
X151686707Y-79973822D01*
X151767196Y-79949405D01*
X151841376Y-79909755D01*
X151906395Y-79856395D01*
X151919029Y-79841000D01*
X152667934Y-79841000D01*
X152676178Y-79924707D01*
X152700595Y-80005196D01*
X152740245Y-80079376D01*
X152793605Y-80144395D01*
X152858624Y-80197755D01*
X152932804Y-80237405D01*
X153013293Y-80261822D01*
X153097000Y-80270066D01*
X153563250Y-80268000D01*
X153670000Y-80161250D01*
X153670000Y-79393000D01*
X153924000Y-79393000D01*
X153924000Y-80161250D01*
X154030750Y-80268000D01*
X154497000Y-80270066D01*
X154580707Y-80261822D01*
X154661196Y-80237405D01*
X154735376Y-80197755D01*
X154800395Y-80144395D01*
X154853755Y-80079376D01*
X154893405Y-80005196D01*
X154917822Y-79924707D01*
X154926066Y-79841000D01*
X154924000Y-79499750D01*
X154817250Y-79393000D01*
X153924000Y-79393000D01*
X153670000Y-79393000D01*
X152776750Y-79393000D01*
X152670000Y-79499750D01*
X152667934Y-79841000D01*
X151919029Y-79841000D01*
X151959755Y-79791376D01*
X151999405Y-79717196D01*
X152023822Y-79636707D01*
X152032066Y-79553000D01*
X152032066Y-79004579D01*
X152252646Y-78784000D01*
X152668497Y-78784000D01*
X152670000Y-79032250D01*
X152776750Y-79139000D01*
X153670000Y-79139000D01*
X153670000Y-79119000D01*
X153924000Y-79119000D01*
X153924000Y-79139000D01*
X154817250Y-79139000D01*
X154924000Y-79032250D01*
X154925503Y-78784000D01*
X155293894Y-78784000D01*
X155321000Y-78786670D01*
X155348106Y-78784000D01*
X155348109Y-78784000D01*
X155429211Y-78776012D01*
X155533263Y-78744448D01*
X155629158Y-78693191D01*
X155713211Y-78624211D01*
X155730500Y-78603144D01*
X157808155Y-76525491D01*
X157829212Y-76508210D01*
X157851280Y-76481320D01*
X157898192Y-76424158D01*
X157935117Y-76355075D01*
X157949449Y-76328262D01*
X157981013Y-76224210D01*
X157989001Y-76143108D01*
X157989001Y-76143098D01*
X157991670Y-76116000D01*
X157989001Y-76088902D01*
X157989001Y-75415450D01*
X158018203Y-75403354D01*
X158219168Y-75269074D01*
X158390074Y-75098168D01*
X158524354Y-74897203D01*
X158616848Y-74673904D01*
X158664001Y-74436850D01*
X158664001Y-74195152D01*
X158616848Y-73958098D01*
X158524354Y-73734799D01*
X158390074Y-73533834D01*
X158219168Y-73362928D01*
X158018203Y-73228648D01*
X158004568Y-73223000D01*
X158219891Y-73223000D01*
X158326461Y-73233449D01*
X158407702Y-73257977D01*
X158482632Y-73297819D01*
X158548396Y-73351455D01*
X158602493Y-73416847D01*
X158642855Y-73491494D01*
X158667951Y-73572565D01*
X158679000Y-73677693D01*
X158679001Y-82527880D01*
X158668550Y-82634462D01*
X158644022Y-82715703D01*
X158604184Y-82790629D01*
X158550544Y-82856398D01*
X158485154Y-82910492D01*
X158410505Y-82950855D01*
X158329435Y-82975951D01*
X158224307Y-82987000D01*
X158062199Y-82987000D01*
X158138453Y-82817058D01*
X157437001Y-82115606D01*
X156735549Y-82817058D01*
X156811803Y-82987000D01*
X143343397Y-82987000D01*
X143353756Y-82974377D01*
X143393406Y-82900197D01*
X143417823Y-82819708D01*
X143426067Y-82736001D01*
X143426067Y-81236739D01*
X143470000Y-81241066D01*
X143911250Y-81239000D01*
X144018000Y-81132250D01*
X144018000Y-80264000D01*
X143149750Y-80264000D01*
X143043000Y-80370750D01*
X143041405Y-80711308D01*
X142997001Y-80706935D01*
X141397001Y-80706935D01*
X141313294Y-80715179D01*
X141232805Y-80739596D01*
X141158625Y-80779246D01*
X141093606Y-80832606D01*
X141040246Y-80897625D01*
X141000596Y-80971805D01*
X140976179Y-81052294D01*
X140967935Y-81136001D01*
X140967935Y-82736001D01*
X140976179Y-82819708D01*
X141000596Y-82900197D01*
X141040246Y-82974377D01*
X141050605Y-82987000D01*
X140914000Y-82987000D01*
X140914000Y-73682109D01*
X140924449Y-73575539D01*
X140948977Y-73494298D01*
X140988819Y-73419368D01*
X141042455Y-73353604D01*
X141107847Y-73299507D01*
X141182494Y-73259145D01*
X141263565Y-73234049D01*
X141368693Y-73223000D01*
X141629434Y-73223000D01*
X141615799Y-73228648D01*
G37*
X141615799Y-73228648D02*
X141414834Y-73362928D01*
X141243928Y-73533834D01*
X141109648Y-73734799D01*
X141017154Y-73958098D01*
X140970001Y-74195152D01*
X140970001Y-74436850D01*
X141017154Y-74673904D01*
X141109648Y-74897203D01*
X141243928Y-75098168D01*
X141414834Y-75269074D01*
X141615799Y-75403354D01*
X141839098Y-75495848D01*
X142076152Y-75543001D01*
X142317850Y-75543001D01*
X142554904Y-75495848D01*
X142778203Y-75403354D01*
X142979168Y-75269074D01*
X143150074Y-75098168D01*
X143253753Y-74943001D01*
X144541290Y-74943001D01*
X145550000Y-75951712D01*
X145550000Y-76347487D01*
X145467132Y-76372625D01*
X145349731Y-76435377D01*
X145246828Y-76519828D01*
X145162377Y-76622731D01*
X145099625Y-76740132D01*
X145060982Y-76867520D01*
X145047934Y-76999999D01*
X145047934Y-77504789D01*
X145000979Y-77434516D01*
X144847484Y-77281021D01*
X144666993Y-77160420D01*
X144610452Y-77137000D01*
X144666993Y-77113580D01*
X144847484Y-76992979D01*
X145000979Y-76839484D01*
X145121580Y-76658993D01*
X145204651Y-76458442D01*
X145247000Y-76245538D01*
X145247000Y-76028462D01*
X145204651Y-75815558D01*
X145121580Y-75615007D01*
X145000979Y-75434516D01*
X144847484Y-75281021D01*
X144666993Y-75160420D01*
X144466442Y-75077349D01*
X144253538Y-75035000D01*
X144036462Y-75035000D01*
X143823558Y-75077349D01*
X143623007Y-75160420D01*
X143442516Y-75281021D01*
X143289021Y-75434516D01*
X143168420Y-75615007D01*
X143085349Y-75815558D01*
X143043000Y-76028462D01*
X143043000Y-76245538D01*
X143085349Y-76458442D01*
X143168420Y-76658993D01*
X143289021Y-76839484D01*
X143442516Y-76992979D01*
X143623007Y-77113580D01*
X143679548Y-77137000D01*
X143623007Y-77160420D01*
X143442516Y-77281021D01*
X143289021Y-77434516D01*
X143168420Y-77615007D01*
X143085349Y-77815558D01*
X143043000Y-78028462D01*
X143043000Y-78245538D01*
X143085349Y-78458442D01*
X143168420Y-78658993D01*
X143289021Y-78839484D01*
X143442516Y-78992979D01*
X143502541Y-79033086D01*
X143470000Y-79032934D01*
X143386293Y-79041178D01*
X143305804Y-79065595D01*
X143231624Y-79105245D01*
X143166605Y-79158605D01*
X143113245Y-79223624D01*
X143073595Y-79297804D01*
X143049178Y-79378293D01*
X143040934Y-79462000D01*
X143043000Y-79903250D01*
X143149750Y-80010000D01*
X144018000Y-80010000D01*
X144018000Y-79990000D01*
X144272000Y-79990000D01*
X144272000Y-80010000D01*
X144292000Y-80010000D01*
X144292000Y-80264000D01*
X144272000Y-80264000D01*
X144272000Y-81132250D01*
X144378750Y-81239000D01*
X144820000Y-81241066D01*
X144903707Y-81232822D01*
X144984196Y-81208405D01*
X145058376Y-81168755D01*
X145123395Y-81115395D01*
X145176755Y-81050376D01*
X145216405Y-80976196D01*
X145240822Y-80895707D01*
X145249066Y-80812000D01*
X145247000Y-80370750D01*
X145140252Y-80264002D01*
X145186530Y-80264002D01*
X145238624Y-80306755D01*
X145312804Y-80346405D01*
X145393293Y-80370822D01*
X145477000Y-80379066D01*
X145943250Y-80377000D01*
X146050000Y-80270250D01*
X146050000Y-79502000D01*
X146030000Y-79502000D01*
X146030000Y-79248000D01*
X146050000Y-79248000D01*
X146050000Y-78479750D01*
X146304000Y-78479750D01*
X146304000Y-79248000D01*
X147197250Y-79248000D01*
X147304000Y-79141250D01*
X147305139Y-78953000D01*
X147473934Y-78953000D01*
X147476000Y-79019250D01*
X147582750Y-79126000D01*
X148376000Y-79126000D01*
X148376000Y-78632750D01*
X148269250Y-78526000D01*
X147903000Y-78523934D01*
X147819293Y-78532178D01*
X147738804Y-78556595D01*
X147664624Y-78596245D01*
X147599605Y-78649605D01*
X147546245Y-78714624D01*
X147506595Y-78788804D01*
X147482178Y-78869293D01*
X147473934Y-78953000D01*
X147305139Y-78953000D01*
X147306066Y-78800000D01*
X147297822Y-78716293D01*
X147273405Y-78635804D01*
X147233755Y-78561624D01*
X147180395Y-78496605D01*
X147115376Y-78443245D01*
X147041196Y-78403595D01*
X146960707Y-78379178D01*
X146877000Y-78370934D01*
X146410750Y-78373000D01*
X146304000Y-78479750D01*
X146050000Y-78479750D01*
X145943250Y-78373000D01*
X145477000Y-78370934D01*
X145393293Y-78379178D01*
X145312804Y-78403595D01*
X145238624Y-78443245D01*
X145196691Y-78477658D01*
X145204651Y-78458442D01*
X145247000Y-78245538D01*
X145247000Y-78130313D01*
X145349731Y-78214623D01*
X145467132Y-78277375D01*
X145594520Y-78316018D01*
X145726999Y-78329066D01*
X146627001Y-78329066D01*
X146759480Y-78316018D01*
X146886868Y-78277375D01*
X147004269Y-78214623D01*
X147107172Y-78130172D01*
X147191623Y-78027269D01*
X147242470Y-77932141D01*
X147325103Y-77907075D01*
X147434028Y-77848853D01*
X147529501Y-77770501D01*
X147549138Y-77746573D01*
X147640147Y-77655564D01*
X147669624Y-77679755D01*
X147743804Y-77719405D01*
X147824293Y-77743822D01*
X147908000Y-77752066D01*
X148620355Y-77752066D01*
X149106000Y-78237712D01*
X149106000Y-78524229D01*
X149103000Y-78523934D01*
X148736750Y-78526000D01*
X148630000Y-78632750D01*
X148630000Y-79126000D01*
X148650000Y-79126000D01*
X148650000Y-79380000D01*
X148630000Y-79380000D01*
X148630000Y-79400000D01*
X148376000Y-79400000D01*
X148376000Y-79380000D01*
X147582750Y-79380000D01*
X147476000Y-79486750D01*
X147473934Y-79553000D01*
X147482178Y-79636707D01*
X147493644Y-79674503D01*
X147440737Y-79690552D01*
X147344842Y-79741809D01*
X147305004Y-79774503D01*
X147304000Y-79608750D01*
X147197250Y-79502000D01*
X146304000Y-79502000D01*
X146304000Y-80270250D01*
X146410750Y-80377000D01*
X146697087Y-80378269D01*
X146567856Y-80507500D01*
X146546789Y-80524789D01*
X146477809Y-80608842D01*
X146426552Y-80704738D01*
X146394988Y-80808790D01*
X146389039Y-80869191D01*
X146384330Y-80917000D01*
X146387000Y-80944106D01*
X146387000Y-81170447D01*
X146296628Y-81260819D01*
X146206123Y-81396269D01*
X146143782Y-81546773D01*
X146112000Y-81706548D01*
X146112000Y-81869452D01*
X146143782Y-82029227D01*
X146206123Y-82179731D01*
X146296628Y-82315181D01*
X146411819Y-82430372D01*
X146547269Y-82520877D01*
X146697773Y-82583218D01*
X146857548Y-82615000D01*
X147020452Y-82615000D01*
X147180227Y-82583218D01*
X147330731Y-82520877D01*
X147466181Y-82430372D01*
X147581372Y-82315181D01*
X147671877Y-82179731D01*
X147734218Y-82029227D01*
X147737096Y-82014756D01*
X156206582Y-82014756D01*
X156245589Y-82253286D01*
X156330381Y-82479623D01*
X156370191Y-82554104D01*
X156555944Y-82637453D01*
X157257396Y-81936001D01*
X157616606Y-81936001D01*
X158318058Y-82637453D01*
X158503811Y-82554104D01*
X158603898Y-82334102D01*
X158659142Y-82098802D01*
X158667420Y-81857246D01*
X158628413Y-81618716D01*
X158543621Y-81392379D01*
X158503811Y-81317898D01*
X158318058Y-81234549D01*
X157616606Y-81936001D01*
X157257396Y-81936001D01*
X156555944Y-81234549D01*
X156370191Y-81317898D01*
X156270104Y-81537900D01*
X156214860Y-81773200D01*
X156206582Y-82014756D01*
X147737096Y-82014756D01*
X147766000Y-81869452D01*
X147766000Y-81857655D01*
X147819293Y-81873822D01*
X147903000Y-81882066D01*
X149103000Y-81882066D01*
X149186707Y-81873822D01*
X149267196Y-81849405D01*
X149341376Y-81809755D01*
X149406395Y-81756395D01*
X149459755Y-81691376D01*
X149499405Y-81617196D01*
X149523822Y-81536707D01*
X149532066Y-81453000D01*
X149532066Y-81330777D01*
X149775866Y-81574578D01*
X149795499Y-81598501D01*
X149890972Y-81676853D01*
X149999897Y-81735075D01*
X150116858Y-81770554D01*
X150164624Y-81809755D01*
X150238804Y-81849405D01*
X150319293Y-81873822D01*
X150403000Y-81882066D01*
X151603000Y-81882066D01*
X151686707Y-81873822D01*
X151767196Y-81849405D01*
X151841376Y-81809755D01*
X151906395Y-81756395D01*
X151959755Y-81691376D01*
X151999405Y-81617196D01*
X152023822Y-81536707D01*
X152032066Y-81453000D01*
X152032066Y-81054944D01*
X156735549Y-81054944D01*
X157437001Y-81756396D01*
X158138453Y-81054944D01*
X158055104Y-80869191D01*
X157835102Y-80769104D01*
X157599802Y-80713860D01*
X157358246Y-80705582D01*
X157119716Y-80744589D01*
X156893379Y-80829381D01*
X156818898Y-80869191D01*
X156735549Y-81054944D01*
X152032066Y-81054944D01*
X152032066Y-80853000D01*
X152023822Y-80769293D01*
X151999405Y-80688804D01*
X151959755Y-80614624D01*
X151906395Y-80549605D01*
X151841376Y-80496245D01*
X151767196Y-80456595D01*
X151686707Y-80432178D01*
X151603000Y-80423934D01*
X150403000Y-80423934D01*
X150399036Y-80424324D01*
X150360000Y-80385289D01*
X150360000Y-79977831D01*
X150403000Y-79982066D01*
X151603000Y-79982066D01*
X151686707Y-79973822D01*
X151767196Y-79949405D01*
X151841376Y-79909755D01*
X151906395Y-79856395D01*
X151919029Y-79841000D01*
X152667934Y-79841000D01*
X152676178Y-79924707D01*
X152700595Y-80005196D01*
X152740245Y-80079376D01*
X152793605Y-80144395D01*
X152858624Y-80197755D01*
X152932804Y-80237405D01*
X153013293Y-80261822D01*
X153097000Y-80270066D01*
X153563250Y-80268000D01*
X153670000Y-80161250D01*
X153670000Y-79393000D01*
X153924000Y-79393000D01*
X153924000Y-80161250D01*
X154030750Y-80268000D01*
X154497000Y-80270066D01*
X154580707Y-80261822D01*
X154661196Y-80237405D01*
X154735376Y-80197755D01*
X154800395Y-80144395D01*
X154853755Y-80079376D01*
X154893405Y-80005196D01*
X154917822Y-79924707D01*
X154926066Y-79841000D01*
X154924000Y-79499750D01*
X154817250Y-79393000D01*
X153924000Y-79393000D01*
X153670000Y-79393000D01*
X152776750Y-79393000D01*
X152670000Y-79499750D01*
X152667934Y-79841000D01*
X151919029Y-79841000D01*
X151959755Y-79791376D01*
X151999405Y-79717196D01*
X152023822Y-79636707D01*
X152032066Y-79553000D01*
X152032066Y-79004579D01*
X152252646Y-78784000D01*
X152668497Y-78784000D01*
X152670000Y-79032250D01*
X152776750Y-79139000D01*
X153670000Y-79139000D01*
X153670000Y-79119000D01*
X153924000Y-79119000D01*
X153924000Y-79139000D01*
X154817250Y-79139000D01*
X154924000Y-79032250D01*
X154925503Y-78784000D01*
X155293894Y-78784000D01*
X155321000Y-78786670D01*
X155348106Y-78784000D01*
X155348109Y-78784000D01*
X155429211Y-78776012D01*
X155533263Y-78744448D01*
X155629158Y-78693191D01*
X155713211Y-78624211D01*
X155730500Y-78603144D01*
X157808155Y-76525491D01*
X157829212Y-76508210D01*
X157851280Y-76481320D01*
X157898192Y-76424158D01*
X157935117Y-76355075D01*
X157949449Y-76328262D01*
X157981013Y-76224210D01*
X157989001Y-76143108D01*
X157989001Y-76143098D01*
X157991670Y-76116000D01*
X157989001Y-76088902D01*
X157989001Y-75415450D01*
X158018203Y-75403354D01*
X158219168Y-75269074D01*
X158390074Y-75098168D01*
X158524354Y-74897203D01*
X158616848Y-74673904D01*
X158664001Y-74436850D01*
X158664001Y-74195152D01*
X158616848Y-73958098D01*
X158524354Y-73734799D01*
X158390074Y-73533834D01*
X158219168Y-73362928D01*
X158018203Y-73228648D01*
X158004568Y-73223000D01*
X158219891Y-73223000D01*
X158326461Y-73233449D01*
X158407702Y-73257977D01*
X158482632Y-73297819D01*
X158548396Y-73351455D01*
X158602493Y-73416847D01*
X158642855Y-73491494D01*
X158667951Y-73572565D01*
X158679000Y-73677693D01*
X158679001Y-82527880D01*
X158668550Y-82634462D01*
X158644022Y-82715703D01*
X158604184Y-82790629D01*
X158550544Y-82856398D01*
X158485154Y-82910492D01*
X158410505Y-82950855D01*
X158329435Y-82975951D01*
X158224307Y-82987000D01*
X158062199Y-82987000D01*
X158138453Y-82817058D01*
X157437001Y-82115606D01*
X156735549Y-82817058D01*
X156811803Y-82987000D01*
X143343397Y-82987000D01*
X143353756Y-82974377D01*
X143393406Y-82900197D01*
X143417823Y-82819708D01*
X143426067Y-82736001D01*
X143426067Y-81236739D01*
X143470000Y-81241066D01*
X143911250Y-81239000D01*
X144018000Y-81132250D01*
X144018000Y-80264000D01*
X143149750Y-80264000D01*
X143043000Y-80370750D01*
X143041405Y-80711308D01*
X142997001Y-80706935D01*
X141397001Y-80706935D01*
X141313294Y-80715179D01*
X141232805Y-80739596D01*
X141158625Y-80779246D01*
X141093606Y-80832606D01*
X141040246Y-80897625D01*
X141000596Y-80971805D01*
X140976179Y-81052294D01*
X140967935Y-81136001D01*
X140967935Y-82736001D01*
X140976179Y-82819708D01*
X141000596Y-82900197D01*
X141040246Y-82974377D01*
X141050605Y-82987000D01*
X140914000Y-82987000D01*
X140914000Y-73682109D01*
X140924449Y-73575539D01*
X140948977Y-73494298D01*
X140988819Y-73419368D01*
X141042455Y-73353604D01*
X141107847Y-73299507D01*
X141182494Y-73259145D01*
X141263565Y-73234049D01*
X141368693Y-73223000D01*
X141629434Y-73223000D01*
X141615799Y-73228648D01*
G36*
X156855799Y-73228648D02*
G01*
X156654834Y-73362928D01*
X156483928Y-73533834D01*
X156349648Y-73734799D01*
X156257154Y-73958098D01*
X156210001Y-74195152D01*
X156210001Y-74436850D01*
X156257154Y-74673904D01*
X156349648Y-74897203D01*
X156483928Y-75098168D01*
X156654834Y-75269074D01*
X156855799Y-75403354D01*
X156885001Y-75415450D01*
X156885001Y-75887353D01*
X155092356Y-77680000D01*
X154911040Y-77680000D01*
X154913018Y-77673480D01*
X154926066Y-77541001D01*
X154926066Y-76890999D01*
X154913018Y-76758520D01*
X154874375Y-76631132D01*
X154811623Y-76513731D01*
X154727172Y-76410828D01*
X154624269Y-76326377D01*
X154506868Y-76263625D01*
X154379480Y-76224982D01*
X154247001Y-76211934D01*
X153346999Y-76211934D01*
X153214520Y-76224982D01*
X153087132Y-76263625D01*
X152969731Y-76326377D01*
X152884896Y-76396000D01*
X151832632Y-76396000D01*
X151796376Y-76366245D01*
X151722196Y-76326595D01*
X151641707Y-76302178D01*
X151558000Y-76293934D01*
X151140646Y-76293934D01*
X150698777Y-75852066D01*
X151558000Y-75852066D01*
X151641707Y-75843822D01*
X151722196Y-75819405D01*
X151796376Y-75779755D01*
X151861395Y-75726395D01*
X151914755Y-75661376D01*
X151954405Y-75587196D01*
X151978822Y-75506707D01*
X151987066Y-75423000D01*
X151987066Y-74823000D01*
X151978822Y-74739293D01*
X151954405Y-74658804D01*
X151914755Y-74584624D01*
X151861395Y-74519605D01*
X151796376Y-74466245D01*
X151722196Y-74426595D01*
X151641707Y-74402178D01*
X151558000Y-74393934D01*
X150408000Y-74393934D01*
X150360727Y-74398590D01*
X150350927Y-74299087D01*
X150315075Y-74180896D01*
X150256853Y-74071972D01*
X150245059Y-74057601D01*
X150178501Y-73976499D01*
X150154578Y-73956866D01*
X149563138Y-73365427D01*
X149543501Y-73341499D01*
X149448028Y-73263147D01*
X149372919Y-73223000D01*
X156869434Y-73223000D01*
X156855799Y-73228648D01*
G37*
X156855799Y-73228648D02*
X156654834Y-73362928D01*
X156483928Y-73533834D01*
X156349648Y-73734799D01*
X156257154Y-73958098D01*
X156210001Y-74195152D01*
X156210001Y-74436850D01*
X156257154Y-74673904D01*
X156349648Y-74897203D01*
X156483928Y-75098168D01*
X156654834Y-75269074D01*
X156855799Y-75403354D01*
X156885001Y-75415450D01*
X156885001Y-75887353D01*
X155092356Y-77680000D01*
X154911040Y-77680000D01*
X154913018Y-77673480D01*
X154926066Y-77541001D01*
X154926066Y-76890999D01*
X154913018Y-76758520D01*
X154874375Y-76631132D01*
X154811623Y-76513731D01*
X154727172Y-76410828D01*
X154624269Y-76326377D01*
X154506868Y-76263625D01*
X154379480Y-76224982D01*
X154247001Y-76211934D01*
X153346999Y-76211934D01*
X153214520Y-76224982D01*
X153087132Y-76263625D01*
X152969731Y-76326377D01*
X152884896Y-76396000D01*
X151832632Y-76396000D01*
X151796376Y-76366245D01*
X151722196Y-76326595D01*
X151641707Y-76302178D01*
X151558000Y-76293934D01*
X151140646Y-76293934D01*
X150698777Y-75852066D01*
X151558000Y-75852066D01*
X151641707Y-75843822D01*
X151722196Y-75819405D01*
X151796376Y-75779755D01*
X151861395Y-75726395D01*
X151914755Y-75661376D01*
X151954405Y-75587196D01*
X151978822Y-75506707D01*
X151987066Y-75423000D01*
X151987066Y-74823000D01*
X151978822Y-74739293D01*
X151954405Y-74658804D01*
X151914755Y-74584624D01*
X151861395Y-74519605D01*
X151796376Y-74466245D01*
X151722196Y-74426595D01*
X151641707Y-74402178D01*
X151558000Y-74393934D01*
X150408000Y-74393934D01*
X150360727Y-74398590D01*
X150350927Y-74299087D01*
X150315075Y-74180896D01*
X150256853Y-74071972D01*
X150245059Y-74057601D01*
X150178501Y-73976499D01*
X150154578Y-73956866D01*
X149563138Y-73365427D01*
X149543501Y-73341499D01*
X149448028Y-73263147D01*
X149372919Y-73223000D01*
X156869434Y-73223000D01*
X156855799Y-73228648D01*
G36*
X148610000Y-75946000D02*
G01*
X148630000Y-75946000D01*
X148630000Y-76200000D01*
X148610000Y-76200000D01*
X148610000Y-76220000D01*
X148356000Y-76220000D01*
X148356000Y-76200000D01*
X148336000Y-76200000D01*
X148336000Y-75946000D01*
X148356000Y-75946000D01*
X148356000Y-75926000D01*
X148610000Y-75926000D01*
X148610000Y-75946000D01*
G37*
X148610000Y-75946000D02*
X148630000Y-75946000D01*
X148630000Y-76200000D01*
X148610000Y-76200000D01*
X148610000Y-76220000D01*
X148356000Y-76220000D01*
X148356000Y-76200000D01*
X148336000Y-76200000D01*
X148336000Y-75946000D01*
X148356000Y-75946000D01*
X148356000Y-75926000D01*
X148610000Y-75926000D01*
X148610000Y-75946000D01*
%TD*%
M02*
