%TF.GenerationSoftware,KiCad,Pcbnew,(5.1.6)-1*%
%TF.CreationDate,2021-08-23T07:44:09-04:00*%
%TF.ProjectId,full-can-to-smd,66756c6c-2d63-4616-9e2d-746f2d736d64,rev?*%
%TF.SameCoordinates,Original*%
%TF.FileFunction,Legend,Bot*%
%TF.FilePolarity,Positive*%
%FSLAX46Y46*%
G04 Gerber Fmt 4.6, Leading zero omitted, Abs format (unit mm)*
G04 Created by KiCad (PCBNEW (5.1.6)-1) date 2021-08-23 07:44:09*
%MOMM*%
%LPD*%
G01*
G04 APERTURE LIST*
%ADD10C,0.125000*%
%ADD11C,0.120000*%
%ADD12C,0.200000*%
%ADD13C,0.150000*%
%ADD14C,0.187500*%
G04 APERTURE END LIST*
D10*
X140823190Y-75668476D02*
X141180333Y-75668476D01*
X141251761Y-75644666D01*
X141299380Y-75597047D01*
X141323190Y-75525619D01*
X141323190Y-75478000D01*
X141323190Y-76144666D02*
X141323190Y-75906571D01*
X140823190Y-75906571D01*
X141275571Y-76597047D02*
X141299380Y-76573238D01*
X141323190Y-76501809D01*
X141323190Y-76454190D01*
X141299380Y-76382761D01*
X141251761Y-76335142D01*
X141204142Y-76311333D01*
X141108904Y-76287523D01*
X141037476Y-76287523D01*
X140942238Y-76311333D01*
X140894619Y-76335142D01*
X140847000Y-76382761D01*
X140823190Y-76454190D01*
X140823190Y-76501809D01*
X140847000Y-76573238D01*
X140870809Y-76597047D01*
X140823190Y-76954190D02*
X141180333Y-76954190D01*
X141251761Y-76930380D01*
X141299380Y-76882761D01*
X141323190Y-76811333D01*
X141323190Y-76763714D01*
X141323190Y-77430380D02*
X141323190Y-77192285D01*
X140823190Y-77192285D01*
X141275571Y-77882761D02*
X141299380Y-77858952D01*
X141323190Y-77787523D01*
X141323190Y-77739904D01*
X141299380Y-77668476D01*
X141251761Y-77620857D01*
X141204142Y-77597047D01*
X141108904Y-77573238D01*
X141037476Y-77573238D01*
X140942238Y-77597047D01*
X140894619Y-77620857D01*
X140847000Y-77668476D01*
X140823190Y-77739904D01*
X140823190Y-77787523D01*
X140847000Y-77858952D01*
X140870809Y-77882761D01*
X140823190Y-78239904D02*
X141180333Y-78239904D01*
X141251761Y-78216095D01*
X141299380Y-78168476D01*
X141323190Y-78097047D01*
X141323190Y-78049428D01*
X141323190Y-78716095D02*
X141323190Y-78478000D01*
X140823190Y-78478000D01*
X141275571Y-79168476D02*
X141299380Y-79144666D01*
X141323190Y-79073238D01*
X141323190Y-79025619D01*
X141299380Y-78954190D01*
X141251761Y-78906571D01*
X141204142Y-78882761D01*
X141108904Y-78858952D01*
X141037476Y-78858952D01*
X140942238Y-78882761D01*
X140894619Y-78906571D01*
X140847000Y-78954190D01*
X140823190Y-79025619D01*
X140823190Y-79073238D01*
X140847000Y-79144666D01*
X140870809Y-79168476D01*
X140823190Y-79525619D02*
X141180333Y-79525619D01*
X141251761Y-79501809D01*
X141299380Y-79454190D01*
X141323190Y-79382761D01*
X141323190Y-79335142D01*
X141323190Y-80001809D02*
X141323190Y-79763714D01*
X140823190Y-79763714D01*
X141275571Y-80454190D02*
X141299380Y-80430380D01*
X141323190Y-80358952D01*
X141323190Y-80311333D01*
X141299380Y-80239904D01*
X141251761Y-80192285D01*
X141204142Y-80168476D01*
X141108904Y-80144666D01*
X141037476Y-80144666D01*
X140942238Y-80168476D01*
X140894619Y-80192285D01*
X140847000Y-80239904D01*
X140823190Y-80311333D01*
X140823190Y-80358952D01*
X140847000Y-80430380D01*
X140870809Y-80454190D01*
X157714142Y-78946285D02*
X157380809Y-78827238D01*
X157714142Y-78708190D01*
X157880809Y-78422476D02*
X157880809Y-78374857D01*
X157857000Y-78327238D01*
X157833190Y-78303428D01*
X157785571Y-78279619D01*
X157690333Y-78255809D01*
X157571285Y-78255809D01*
X157476047Y-78279619D01*
X157428428Y-78303428D01*
X157404619Y-78327238D01*
X157380809Y-78374857D01*
X157380809Y-78422476D01*
X157404619Y-78470095D01*
X157428428Y-78493904D01*
X157476047Y-78517714D01*
X157571285Y-78541523D01*
X157690333Y-78541523D01*
X157785571Y-78517714D01*
X157833190Y-78493904D01*
X157857000Y-78470095D01*
X157880809Y-78422476D01*
X157428428Y-78041523D02*
X157404619Y-78017714D01*
X157380809Y-78041523D01*
X157404619Y-78065333D01*
X157428428Y-78041523D01*
X157380809Y-78041523D01*
X157880809Y-77851047D02*
X157880809Y-77541523D01*
X157690333Y-77708190D01*
X157690333Y-77636761D01*
X157666523Y-77589142D01*
X157642714Y-77565333D01*
X157595095Y-77541523D01*
X157476047Y-77541523D01*
X157428428Y-77565333D01*
X157404619Y-77589142D01*
X157380809Y-77636761D01*
X157380809Y-77779619D01*
X157404619Y-77827238D01*
X157428428Y-77851047D01*
X158603142Y-81021666D02*
X158269809Y-80926428D01*
X158507904Y-80831190D01*
X158269809Y-80735952D01*
X158603142Y-80640714D01*
X158269809Y-80450238D02*
X158603142Y-80450238D01*
X158769809Y-80450238D02*
X158746000Y-80474047D01*
X158722190Y-80450238D01*
X158746000Y-80426428D01*
X158769809Y-80450238D01*
X158722190Y-80450238D01*
X158269809Y-80212142D02*
X158603142Y-80212142D01*
X158507904Y-80212142D02*
X158555523Y-80188333D01*
X158579333Y-80164523D01*
X158603142Y-80116904D01*
X158603142Y-80069285D01*
X158293619Y-79712142D02*
X158269809Y-79759761D01*
X158269809Y-79855000D01*
X158293619Y-79902619D01*
X158341238Y-79926428D01*
X158531714Y-79926428D01*
X158579333Y-79902619D01*
X158603142Y-79855000D01*
X158603142Y-79759761D01*
X158579333Y-79712142D01*
X158531714Y-79688333D01*
X158484095Y-79688333D01*
X158436476Y-79926428D01*
X158603142Y-79545476D02*
X158603142Y-79355000D01*
X158769809Y-79474047D02*
X158341238Y-79474047D01*
X158293619Y-79450238D01*
X158269809Y-79402619D01*
X158269809Y-79355000D01*
X158269809Y-78974047D02*
X158531714Y-78974047D01*
X158579333Y-78997857D01*
X158603142Y-79045476D01*
X158603142Y-79140714D01*
X158579333Y-79188333D01*
X158293619Y-78974047D02*
X158269809Y-79021666D01*
X158269809Y-79140714D01*
X158293619Y-79188333D01*
X158341238Y-79212142D01*
X158388857Y-79212142D01*
X158436476Y-79188333D01*
X158460285Y-79140714D01*
X158460285Y-79021666D01*
X158484095Y-78974047D01*
X158603142Y-78735952D02*
X158103142Y-78735952D01*
X158579333Y-78735952D02*
X158603142Y-78688333D01*
X158603142Y-78593095D01*
X158579333Y-78545476D01*
X158555523Y-78521666D01*
X158507904Y-78497857D01*
X158365047Y-78497857D01*
X158317428Y-78521666D01*
X158293619Y-78545476D01*
X158269809Y-78593095D01*
X158269809Y-78688333D01*
X158293619Y-78735952D01*
X158460285Y-77902619D02*
X158460285Y-77521666D01*
X158722190Y-76926428D02*
X158746000Y-76902619D01*
X158769809Y-76855000D01*
X158769809Y-76735952D01*
X158746000Y-76688333D01*
X158722190Y-76664523D01*
X158674571Y-76640714D01*
X158626952Y-76640714D01*
X158555523Y-76664523D01*
X158269809Y-76950238D01*
X158269809Y-76640714D01*
X158769809Y-76331190D02*
X158769809Y-76283571D01*
X158746000Y-76235952D01*
X158722190Y-76212142D01*
X158674571Y-76188333D01*
X158579333Y-76164523D01*
X158460285Y-76164523D01*
X158365047Y-76188333D01*
X158317428Y-76212142D01*
X158293619Y-76235952D01*
X158269809Y-76283571D01*
X158269809Y-76331190D01*
X158293619Y-76378809D01*
X158317428Y-76402619D01*
X158365047Y-76426428D01*
X158460285Y-76450238D01*
X158579333Y-76450238D01*
X158674571Y-76426428D01*
X158722190Y-76402619D01*
X158746000Y-76378809D01*
X158769809Y-76331190D01*
X158722190Y-75974047D02*
X158746000Y-75950238D01*
X158769809Y-75902619D01*
X158769809Y-75783571D01*
X158746000Y-75735952D01*
X158722190Y-75712142D01*
X158674571Y-75688333D01*
X158626952Y-75688333D01*
X158555523Y-75712142D01*
X158269809Y-75997857D01*
X158269809Y-75688333D01*
X158269809Y-75212142D02*
X158269809Y-75497857D01*
X158269809Y-75355000D02*
X158769809Y-75355000D01*
X158698380Y-75402619D01*
X158650761Y-75450238D01*
X158626952Y-75497857D01*
D11*
%TO.C,C1*%
X145467000Y-78088748D02*
X145467000Y-78611252D01*
X146887000Y-78088748D02*
X146887000Y-78611252D01*
%TO.C,C2*%
X154507000Y-77979748D02*
X154507000Y-78502252D01*
X153087000Y-77979748D02*
X153087000Y-78502252D01*
D12*
%TO.C,IC1*%
X147908000Y-77573000D02*
X149058000Y-77573000D01*
X149408000Y-74623000D02*
X149408000Y-77523000D01*
X150058000Y-74623000D02*
X149408000Y-74623000D01*
X150058000Y-77523000D02*
X150058000Y-74623000D01*
X149408000Y-77523000D02*
X150058000Y-77523000D01*
%TO.C,IC2*%
X147903000Y-81703000D02*
X149103000Y-81703000D01*
X149453000Y-78753000D02*
X149453000Y-81653000D01*
X150053000Y-78753000D02*
X149453000Y-78753000D01*
X150053000Y-81653000D02*
X150053000Y-78753000D01*
X149453000Y-81653000D02*
X150053000Y-81653000D01*
%TO.C,C1*%
D10*
X147498571Y-78275666D02*
X147522380Y-78251857D01*
X147546190Y-78180428D01*
X147546190Y-78132809D01*
X147522380Y-78061380D01*
X147474761Y-78013761D01*
X147427142Y-77989952D01*
X147331904Y-77966142D01*
X147260476Y-77966142D01*
X147165238Y-77989952D01*
X147117619Y-78013761D01*
X147070000Y-78061380D01*
X147046190Y-78132809D01*
X147046190Y-78180428D01*
X147070000Y-78251857D01*
X147093809Y-78275666D01*
X147546190Y-78751857D02*
X147546190Y-78466142D01*
X147546190Y-78609000D02*
X147046190Y-78609000D01*
X147117619Y-78561380D01*
X147165238Y-78513761D01*
X147189047Y-78466142D01*
%TO.C,C2*%
D13*
X155588857Y-78125000D02*
X155624571Y-78089285D01*
X155660285Y-77982142D01*
X155660285Y-77910714D01*
X155624571Y-77803571D01*
X155553142Y-77732142D01*
X155481714Y-77696428D01*
X155338857Y-77660714D01*
X155231714Y-77660714D01*
X155088857Y-77696428D01*
X155017428Y-77732142D01*
X154946000Y-77803571D01*
X154910285Y-77910714D01*
X154910285Y-77982142D01*
X154946000Y-78089285D01*
X154981714Y-78125000D01*
X154981714Y-78410714D02*
X154946000Y-78446428D01*
X154910285Y-78517857D01*
X154910285Y-78696428D01*
X154946000Y-78767857D01*
X154981714Y-78803571D01*
X155053142Y-78839285D01*
X155124571Y-78839285D01*
X155231714Y-78803571D01*
X155660285Y-78375000D01*
X155660285Y-78839285D01*
%TO.C,IC1*%
D14*
X150465142Y-74126285D02*
X150465142Y-73376285D01*
X149679428Y-74054857D02*
X149715142Y-74090571D01*
X149822285Y-74126285D01*
X149893714Y-74126285D01*
X150000857Y-74090571D01*
X150072285Y-74019142D01*
X150108000Y-73947714D01*
X150143714Y-73804857D01*
X150143714Y-73697714D01*
X150108000Y-73554857D01*
X150072285Y-73483428D01*
X150000857Y-73412000D01*
X149893714Y-73376285D01*
X149822285Y-73376285D01*
X149715142Y-73412000D01*
X149679428Y-73447714D01*
X148965142Y-74126285D02*
X149393714Y-74126285D01*
X149179428Y-74126285D02*
X149179428Y-73376285D01*
X149250857Y-73483428D01*
X149322285Y-73554857D01*
X149393714Y-73590571D01*
%TO.C,IC2*%
X150465142Y-82889285D02*
X150465142Y-82139285D01*
X149679428Y-82817857D02*
X149715142Y-82853571D01*
X149822285Y-82889285D01*
X149893714Y-82889285D01*
X150000857Y-82853571D01*
X150072285Y-82782142D01*
X150108000Y-82710714D01*
X150143714Y-82567857D01*
X150143714Y-82460714D01*
X150108000Y-82317857D01*
X150072285Y-82246428D01*
X150000857Y-82175000D01*
X149893714Y-82139285D01*
X149822285Y-82139285D01*
X149715142Y-82175000D01*
X149679428Y-82210714D01*
X149393714Y-82210714D02*
X149358000Y-82175000D01*
X149286571Y-82139285D01*
X149108000Y-82139285D01*
X149036571Y-82175000D01*
X149000857Y-82210714D01*
X148965142Y-82282142D01*
X148965142Y-82353571D01*
X149000857Y-82460714D01*
X149429428Y-82889285D01*
X148965142Y-82889285D01*
%TD*%
M02*
